<svg width="16.000000" height="12.000000" viewBox="0 0 16 12" fill="none" xmlns="http://www.w3.org/2000/svg" xmlns:xlink="http://www.w3.org/1999/xlink">
	<desc>
			Created with Pixso.
	</desc>
	<defs/>
	<path id="Vector" d="M15.99 3.36C15.9 1.47 14.45 0 12.7 0L3.29 0C1.54 0 0.09 1.47 0 3.36C0 3.42 0 10.37 0 10.37C0 11.27 0.67 12 1.5 12L14.49 12C15.32 12 16 11.27 16 10.37C16 10.37 15.99 3.42 15.99 3.36ZM3.29 0.75L12.7 0.75C13.96 0.75 15.01 1.71 15.25 3L14.54 3C14.31 2.12 13.57 1.49 12.7 1.49L8.14 1.49C7.95 1.49 8.49 1.66 8.49 1.87C8.49 2.08 7.95 2.24 8.14 2.24L12.7 2.24C13.18 2.24 13.61 2.55 13.8 3L13.45 3C12.58 3 11.87 3.74 11.82 4.66C10.61 4.24 9.3 4.04 8 4.04C6.69 4.04 5.38 4.24 4.17 4.66C4.12 3.74 3.41 3 2.54 3L2.19 3C2.38 2.55 2.81 2.24 3.29 2.24L8.14 2.24C8.33 2.24 8.49 2.08 8.49 1.87C8.49 1.66 8.33 1.49 8.14 1.49L3.29 1.49C2.42 1.49 1.68 2.12 1.45 3L0.74 3C0.98 1.71 2.03 0.75 3.29 0.75ZM11.82 5.45L11.82 6.72C11.82 7.28 11.4 7.73 10.89 7.73L5.1 7.73C4.59 7.73 4.17 7.28 4.17 6.72L4.17 5.45C6.58 4.57 9.41 4.57 11.82 5.45ZM15.3 10.37C15.3 10.85 14.94 11.25 14.49 11.25L1.5 11.25C1.05 11.25 0.69 10.85 0.69 10.37L0.69 10.12L0.69 9.74L0.69 9.37L0.69 3.75L2.54 3.75C3.05 3.75 3.47 4.2 3.47 4.76L3.47 6.72C3.47 7.69 4.2 8.48 5.1 8.48L11.42 8.48C11.82 8.48 12.52 8 12.52 6.72L12.52 4.76C12.52 4.2 12.94 3.75 13.45 3.75L15.3 3.75L15.3 10.37Z" fill="#777777" fill-opacity="1.000000" fill-rule="nonzero"/>
</svg>
