<svg width="16.000000" height="16.000000" viewBox="0 0 16 16" fill="none" xmlns="http://www.w3.org/2000/svg" xmlns:xlink="http://www.w3.org/1999/xlink">
	<desc>
			Created with Pixso.
	</desc>
	<defs/>
	<path id="Vector" d="M15.86 7.16L9.18 0.49C8.87 0.17 8.44 0 8 0C7.55 0 7.12 0.17 6.81 0.49L0.13 7.16C0.04 7.25 0 7.37 0 7.49C0 7.62 0.04 7.74 0.13 7.82C0.13 7.82 0.36 8.05 0.63 8.33C1.16 8.86 1.9 8.98 2.51 8.8L2.51 15.53C2.51 15.79 2.72 16 2.97 16L13.02 16C13.27 16 13.48 15.79 13.48 15.53L13.48 8.8C14.09 8.98 14.83 8.86 15.36 8.33C15.63 8.05 15.86 7.82 15.86 7.82C15.95 7.74 16 7.62 16 7.49C16 7.37 15.95 7.25 15.86 7.16ZM12.55 8.19L12.55 13.05L10.47 13.05L10.47 10C10.47 8.64 9.37 7.53 8 7.53C6.63 7.53 5.52 8.63 5.52 10L5.52 13.05L3.44 13.05L3.44 8.19L8 3.64L12.55 8.19ZM3.44 13.99L5.52 13.99L5.52 15.06L3.44 15.06L3.44 13.99ZM6.46 15.06L6.46 10C6.46 9.15 7.14 8.46 8 8.46C8.85 8.46 9.53 9.15 9.53 10L9.53 15.06L6.46 15.06ZM10.47 15.06L10.47 13.99L12.55 13.99L12.55 15.06L10.47 15.06ZM14.69 7.66C14.32 8.04 13.72 8.04 13.35 7.66C13.34 7.66 13.34 7.66 13.34 7.65L8.33 2.64C8.14 2.46 7.85 2.46 7.66 2.64L2.65 7.65C2.65 7.66 2.65 7.66 2.64 7.66C2.27 8.04 1.67 8.04 1.3 7.66C1.24 7.6 1.18 7.55 1.13 7.49L7.47 1.15C7.76 0.86 8.23 0.86 8.52 1.15L14.86 7.49C14.81 7.55 14.75 7.6 14.69 7.66Z" fill="#777777" fill-opacity="1.000000" fill-rule="nonzero"/>
</svg>
