<svg width="16.000000" height="16.000000" viewBox="0 0 16 16" fill="none" xmlns="http://www.w3.org/2000/svg" xmlns:xlink="http://www.w3.org/1999/xlink">
	<desc>
			Created with Pixso.
	</desc>
	<defs/>
	<path id="Vector" d="M16 8C16 10.13 15.16 12.14 13.65 13.65C12.14 15.16 10.13 16 8 16C6.5 16 5.07 15.59 3.82 14.82L4.74 13.91C5.71 14.44 6.82 14.75 8 14.75C11.72 14.75 14.75 11.72 14.75 8C14.75 6.82 14.44 5.71 13.91 4.74L14.82 3.82C15.59 5.07 16 6.5 16 8ZM0.91 15.97L0.02 15.08L1.91 13.19C0.67 11.75 0 9.92 0 8C0 5.86 0.83 3.85 2.34 2.34C3.85 0.83 5.86 0 8 0C9.92 0 11.75 0.67 13.19 1.91L15.08 0.02L15.97 0.91L0.91 15.97ZM2.8 12.3L12.3 2.8C11.13 1.83 9.63 1.25 8 1.25C4.27 1.25 1.25 4.27 1.25 8C1.25 9.63 1.83 11.13 2.8 12.3Z" fill="#777777" fill-opacity="1.000000" fill-rule="nonzero"/>
</svg>
