<svg width="14.000000" height="16.000000" viewBox="0 0 14 16" fill="none" xmlns="http://www.w3.org/2000/svg" xmlns:xlink="http://www.w3.org/1999/xlink">
	<desc>
			Created with Pixso.
	</desc>
	<defs/>
	<path id="Vector" d="M13.22 13.61L8.89 13.61L8.89 2.38L10.59 2.38L10.59 6.82C10.08 6.94 9.69 7.42 9.69 8C9.69 8.66 10.2 9.2 10.83 9.2C11.46 9.2 11.97 8.66 11.97 8C11.97 7.42 11.58 6.94 11.07 6.82L11.07 2.38L12.56 2.38C12.99 2.38 13.33 2.02 13.33 1.57L13.33 0.81C13.33 0.36 12.99 0 12.56 0L1.43 0C1 0 0.66 0.36 0.66 0.81L0.66 1.57C0.66 2.02 1 2.38 1.43 2.38L5.1 2.38L5.1 13.61L0.77 13.61C0.34 13.61 0 13.97 0 14.42L0 15.18C0 15.63 0.34 16 0.77 16L13.22 16C13.65 16 14 15.63 14 15.18L14 14.42C14 13.97 13.65 13.61 13.22 13.61ZM11.48 8C11.48 8.37 11.19 8.68 10.83 8.68C10.47 8.68 10.18 8.37 10.18 8C10.18 7.62 10.47 7.31 10.83 7.31C11.19 7.31 11.48 7.62 11.48 8ZM1.43 1.57L1.43 0.81C1.43 0.65 1.67 0.59 1.82 0.59L12.4 0.59C12.56 0.59 12.68 0.65 12.68 0.81L12.68 1.57C12.68 1.73 12.56 1.78 12.4 1.78L1.82 1.78C1.67 1.78 1.43 1.73 1.43 1.57ZM5.73 11.78L6 11.78C6 11.78 6.25 11.66 6.25 11.52C6.25 11.37 6.14 11.26 6 11.26L5.73 11.26L5.73 9.43L8.31 9.43C8.44 9.43 9.26 9.28 8.62 9.14C9.26 9 8.44 8.91 8.31 8.91L5.73 8.91L5.73 7.08L7.99 7.08C8.12 7.08 7.74 6.96 7.74 6.82C7.74 6.68 8.12 6.56 7.99 6.56L5.73 6.56L5.73 2.38L8.31 2.38L8.31 4.21L5.52 4.21C5.38 4.21 5.52 4.19 5.52 4.33C5.52 4.73 5.37 4.73 5.37 4.73L8.31 4.73L8.31 6.56L7.99 6.56C7.85 6.56 7.74 6.68 7.74 6.82C7.74 6.96 7.85 7.08 7.99 7.08L8.31 7.08L8.31 9.17L8.31 11.26L6 11.26C5.87 11.26 6.25 11.37 6.25 11.52C6.25 11.66 5.87 11.78 6 11.78L8.31 11.78L8.31 13.61L5.73 13.61L5.73 11.78ZM13.4 15.18C13.4 15.34 13.15 15.39 13 15.39L0.9 15.39C0.75 15.39 0.62 15.34 0.62 15.18L0.62 14.42C0.62 14.26 0.75 14.21 0.9 14.21L13.11 14.21C13.27 14.21 13.4 14.26 13.4 14.42L13.4 15.18Z" fill="#777777" fill-opacity="1.000000" fill-rule="nonzero"/>
</svg>
