<svg width="16.000000" height="16.000000" viewBox="0 0 16 16" fill="none" xmlns="http://www.w3.org/2000/svg" xmlns:xlink="http://www.w3.org/1999/xlink">
	<desc>
			Created with Pixso.
	</desc>
	<defs/>
	<path id="Vector" d="M14.52 13.05L10.49 13.05C12.58 11.84 13.99 9.58 13.99 6.99C13.99 3.13 10.85 0 6.99 0C3.13 0 0 3.13 0 6.99C0 10.85 3.13 13.99 6.99 13.99L14.52 13.99C14.82 13.99 15.06 14.23 15.06 14.52C15.06 14.82 14.82 15.06 14.52 15.06L8 15.06C7.74 15.06 7.53 15.27 7.53 15.53C7.53 15.79 7.74 16 8 16L14.52 16C15.33 16 16 15.35 16 14.52C16 13.71 15.33 13.05 14.52 13.05ZM6.99 13.05C6.73 13.05 6.47 13.03 6.22 13L11.34 10.04L11.99 10.42C10.89 12.01 9.06 13.05 6.99 13.05ZM3.59 12L9.16 8.79L10.4 9.5L4.9 12.68C4.44 12.51 4 12.28 3.59 12ZM3.11 2.34C3.49 2.03 3.9 1.76 4.35 1.54L4.35 7.98L3.11 8.69L3.11 2.34ZM5.29 1.18C5.68 1.06 6.1 0.98 6.52 0.95L6.52 6.72L5.29 7.43L5.29 1.18ZM13.05 6.99C13.05 7.14 13.04 7.28 13.03 7.43L7.46 4.21L7.46 2.78L12.96 5.96C13.02 6.29 13.05 6.64 13.05 6.99ZM7.46 5.29L12.88 8.42C12.78 8.83 12.64 9.23 12.46 9.6L7.46 6.72L7.46 5.29ZM12.58 4.66L7.46 1.7L7.46 0.95C9.77 1.13 11.72 2.61 12.58 4.66ZM2.17 3.32L2.17 9.23L1.53 9.6C1.15 8.81 0.93 7.93 0.93 6.99C0.93 5.61 1.4 4.34 2.17 3.32ZM2 10.42L6.99 7.53L8.23 8.25L2.81 11.37C2.51 11.08 2.23 10.76 2 10.42Z" fill="#777777" fill-opacity="1.000000" fill-rule="nonzero"/>
</svg>
